:FULLY-SPECIFIED
:FORCE-ALL-JOINTS-BE-3DOF
:DEGREES
1053
root 1.30034 15.2277 32.7054 5.36379 -3.42112 363.594
lfemur 6.70035 0.747737 4.32318
ltibia 4.24911 0 0
lfoot -32.0555 -11.3676 0
ltoes -33.3887 0 0
rfemur -30.328 -13.7639 -7.00078
rtibia 48.9648 0 0
rfoot -20.3711 3.56404 0
rtoes -41.7517 0 0
lowerback -2.40087 -0.246532 -0.546877
upperback -0.728146 -0.277275 -6.21891
thorax 0.563285 -0.145928 -6.15334
lowerneck -7.44386 0.626297 5.62195
upperneck 2.16891 0.138567 3.89163
head 1.95744 0.230657 0.278388
lclavicle 1.11766e-15 1.3209e-14 0
lhumerus -58.4443 -45.9675 114.489
lradius 55.6544 0 0
lwrist 25.6141 0 0
lhand 38.543 25.111 0
lfingers 7.12502 0 0
lthumb 61.1646 37.5144 0
rclavicle 1.11766e-15 1.3209e-14 0
rhumerus 0.656786 -16.1741 -1.31874
rradius 30.7936 0 0
rwrist -10.8617 0 0
rhand -27.4737 -40.4787 0
rfingers 7.12502 0 0
rthumb -0.878141 -790.385 0
1054
root 1.29939 15.226 32.7047 5.35459 -3.42651 363.581
lfemur 6.7224 0.749496 4.34454
ltibia 4.23342 0 0
lfoot -32.066 -11.3375 0
ltoes -33.4158 0 0
rfemur -30.3294 -13.7967 -6.98329
rtibia 48.9775 0 0
rfoot -20.4143 3.60409 0
rtoes -41.7313 0 0
lowerback -2.39233 -0.240354 -0.547674
upperback -0.721739 -0.26899 -6.20983
thorax 0.566152 -0.141589 -6.14284
lowerneck -7.4482 0.626575 5.64212
upperneck 2.16934 0.136728 3.89258
head 1.9584 0.230024 0.275225
lclavicle 1.11089e-15 1.3869e-14 0
lhumerus -58.4399 -45.9881 114.516
lradius 55.6546 0 0
lwrist 25.613 0 0
lhand 38.5172 25.1192 0
lfingers 7.12502 0 0
lthumb 61.1432 37.5495 0
rclavicle 1.11089e-15 1.3869e-14 0
rhumerus 0.694265 -16.3698 -1.26512
rradius 30.6964 0 0
rwrist -10.805 0 0
rhand -27.5668 -40.4998 0
rfingers 7.12502 0 0
rthumb -0.968015 -790.407 0
1055
root 1.29845 15.2242 32.7041 5.34539 -3.43189 363.569
lfemur 6.74444 0.751254 4.3659
ltibia 4.21773 0 0
lfoot -32.0765 -11.3074 0
ltoes -33.443 0 0
rfemur -30.3308 -13.8295 -6.96579
rtibia 48.9902 0 0
rfoot -20.4575 3.64414 0
rtoes -41.711 0 0
lowerback -2.38379 -0.234176 -0.548471
upperback -0.715332 -0.260706 -6.20075
thorax 0.569018 -0.13725 -6.13234
lowerneck -7.45254 0.626853 5.66228
upperneck 2.16977 0.134888 3.89353
head 1.95936 0.22939 0.272061
lclavicle 1.10413e-15 1.45289e-14 0
lhumerus -58.4356 -46.0086 114.542
lradius 55.6548 0 0
lwrist 25.612 0 0
lhand 38.4915 25.1273 0
lfingers 7.12502 0 0
lthumb 61.1218 37.5845 0
rclavicle 1.10413e-15 1.45289e-14 0
rhumerus 0.731745 -16.5655 -1.21149
rradius 30.5992 0 0
rwrist -10.7483 0 0
rhand -27.6599 -40.5209 0
rfingers 7.12502 0 0
rthumb -1.05789 -790.429 0
1056
root 1.2975 15.2225 32.7034 5.33619 -3.43727 363.556
lfemur 6.76648 0.753013 4.38726
ltibia 4.20204 0 0
lfoot -32.087 -11.2772 0
ltoes -33.4701 0 0
rfemur -30.3323 -13.8623 -6.94829
rtibia 49.0029 0 0
rfoot -20.5007 3.68419 0
rtoes -41.6907 0 0
lowerback -2.37526 -0.227999 -0.549269
upperback -0.708924 -0.252422 -6.19167
thorax 0.571885 -0.132912 -6.12184
lowerneck -7.45688 0.62713 5.68244
upperneck 2.1702 0.133049 3.89449
head 1.96033 0.228756 0.268898
lclavicle 1.09737e-15 1.51888e-14 0
lhumerus -58.4313 -46.0291 114.569
lradius 55.6551 0 0
lwrist 25.6109 0 0
lhand 38.4658 25.1355 0
lfingers 7.12502 0 0
lthumb 61.1004 37.6195 0
rclavicle 1.09737e-15 1.51888e-14 0
rhumerus 0.769224 -16.7612 -1.15787
rradius 30.5021 0 0
rwrist -10.6916 0 0
rhand -27.753 -40.542 0
rfingers 7.12502 0 0
rthumb -1.14777 -790.452 0
1057
root 1.29655 15.2208 32.7028 5.32699 -3.44265 363.543
lfemur 6.78852 0.754771 4.40861
ltibia 4.18635 0 0
lfoot -32.0975 -11.2471 0
ltoes -33.4972 0 0
rfemur -30.3337 -13.8951 -6.93079
rtibia 49.0156 0 0
rfoot -20.544 3.72424 0
rtoes -41.6703 0 0
lowerback -2.36672 -0.221821 -0.550066
upperback -0.702517 -0.244138 -6.18259
thorax 0.574751 -0.128573 -6.11134
lowerneck -7.46122 0.627408 5.70261
upperneck 2.17063 0.131209 3.89544
head 1.96129 0.228123 0.265734
lclavicle 1.09061e-15 1.58487e-14 0
lhumerus -58.4269 -46.0497 114.595
lradius 55.6553 0 0
lwrist 25.6099 0 0
lhand 38.4401 25.1436 0
lfingers 7.12502 0 0
lthumb 61.0789 37.6546 0
rclavicle 1.09061e-15 1.58487e-14 0
rhumerus 0.806704 -16.9569 -1.10425
rradius 30.4049 0 0
rwrist -10.6349 0 0
rhand -27.8461 -40.5631 0
rfingers 7.12502 0 0
rthumb -1.23764 -790.474 0
1058
root 1.2956 15.2191 32.7021 5.31779 -3.44804 363.531
lfemur 6.81056 0.75653 4.42997
ltibia 4.17067 0 0
lfoot -32.108 -11.217 0
ltoes -33.5243 0 0
rfemur -30.3352 -13.9279 -6.9133
rtibia 49.0283 0 0
rfoot -20.5872 3.7643 0
rtoes -41.65 0 0
lowerback -2.35818 -0.215643 -0.550864
upperback -0.69611 -0.235853 -6.17351
thorax 0.577618 -0.124234 -6.10084
lowerneck -7.46556 0.627686 5.72277
upperneck 2.17105 0.12937 3.8964
head 1.96225 0.227489 0.262571
lclavicle 1.08385e-15 1.65086e-14 0
lhumerus -58.4226 -46.0702 114.622
lradius 55.6555 0 0
lwrist 25.6088 0 0
lhand 38.4143 25.1517 0
lfingers 7.12502 0 0
lthumb 61.0575 37.6896 0
rclavicle 1.08385e-15 1.65086e-14 0
rhumerus 0.844183 -17.1525 -1.05062
rradius 30.3077 0 0
rwrist -10.5782 0 0
rhand -27.9391 -40.5842 0
rfingers 7.12502 0 0
rthumb -1.32751 -790.496 0
1059
root 1.29465 15.2174 32.7015 5.30859 -3.45342 363.518
lfemur 6.83261 0.758288 4.45133
ltibia 4.15498 0 0
lfoot -32.1185 -11.1869 0
ltoes -33.5514 0 0
rfemur -30.3366 -13.9607 -6.8958
rtibia 49.041 0 0
rfoot -20.6304 3.80435 0
rtoes -41.6297 0 0
lowerback -2.34964 -0.209466 -0.551661
upperback -0.689702 -0.227569 -6.16442
thorax 0.580484 -0.119895 -6.09034
lowerneck -7.4699 0.627964 5.74293
upperneck 2.17148 0.12753 3.89735
head 1.96321 0.226855 0.259407
lclavicle 1.07709e-15 1.71685e-14 0
lhumerus -58.4183 -46.0907 114.648
lradius 55.6557 0 0
lwrist 25.6078 0 0
lhand 38.3886 25.1599 0
lfingers 7.12502 0 0
lthumb 61.0361 37.7246 0
rclavicle 1.07709e-15 1.71685e-14 0
rhumerus 0.881663 -17.3482 -0.997
rradius 30.2105 0 0
rwrist -10.5215 0 0
rhand -28.0322 -40.6054 0
rfingers 7.12502 0 0
rthumb -1.41739 -790.518 0
1060
root 1.29371 15.2156 32.7008 5.29939 -3.4588 363.505
lfemur 6.85465 0.760047 4.47269
ltibia 4.13929 0 0
lfoot -32.129 -11.1567 0
ltoes -33.5785 0 0
rfemur -30.3381 -13.9935 -6.8783
rtibia 49.0537 0 0
rfoot -20.6736 3.8444 0
rtoes -41.6093 0 0
lowerback -2.34111 -0.203288 -0.552458
upperback -0.683295 -0.219285 -6.15534
thorax 0.583351 -0.115557 -6.07984
lowerneck -7.47424 0.628241 5.76309
upperneck 2.17191 0.125691 3.8983
head 1.96417 0.226222 0.256244
lclavicle 1.07033e-15 1.78284e-14 0
lhumerus -58.4139 -46.1113 114.675
lradius 55.656 0 0
lwrist 25.6067 0 0
lhand 38.3629 25.168 0
lfingers 7.12502 0 0
lthumb 61.0147 37.7597 0
rclavicle 1.07033e-15 1.78284e-14 0
rhumerus 0.919142 -17.5439 -0.943376
rradius 30.1134 0 0
rwrist -10.4648 0 0
rhand -28.1253 -40.6265 0
rfingers 7.12502 0 0
rthumb -1.50726 -790.541 0
1061
root 1.29276 15.2139 32.7002 5.29019 -3.46418 363.493
lfemur 6.87669 0.761805 4.49404
ltibia 4.1236 0 0
lfoot -32.1395 -11.1266 0
ltoes -33.6056 0 0
rfemur -30.3395 -14.0263 -6.8608
rtibia 49.0664 0 0
rfoot -20.7168 3.88445 0
rtoes -41.589 0 0
lowerback -2.33257 -0.19711 -0.553256
upperback -0.676888 -0.211001 -6.14626
thorax 0.586217 -0.111218 -6.06934
lowerneck -7.47858 0.628519 5.78326
upperneck 2.17234 0.123851 3.89926
head 1.96513 0.225588 0.25308
lclavicle 1.06356e-15 1.84883e-14 0
lhumerus -58.4096 -46.1318 114.701
lradius 55.6562 0 0
lwrist 25.6057 0 0
lhand 38.3372 25.1762 0
lfingers 7.12502 0 0
lthumb 60.9932 37.7947 0
rclavicle 1.06356e-15 1.84883e-14 0
rhumerus 0.956622 -17.7396 -0.889752
rradius 30.0162 0 0
rwrist -10.4081 0 0
rhand -28.2184 -40.6476 0
rfingers 7.12502 0 0
rthumb -1.59714 -790.563 0
1062
root 1.29181 15.2122 32.6995 5.28099 -3.46957 363.48
lfemur 6.89873 0.763564 4.5154
ltibia 4.10791 0 0
lfoot -32.1499 -11.0965 0
ltoes -33.6327 0 0
rfemur -30.341 -14.0591 -6.8433
rtibia 49.079 0 0
rfoot -20.7601 3.9245 0
rtoes -41.5687 0 0
lowerback -2.32403 -0.190933 -0.554053
upperback -0.670481 -0.202716 -6.13718
thorax 0.589083 -0.106879 -6.05884
lowerneck -7.48293 0.628797 5.80342
upperneck 2.17277 0.122012 3.90021
head 1.96609 0.224955 0.249917
lclavicle 1.0568e-15 1.91482e-14 0
lhumerus -58.4052 -46.1523 114.727
lradius 55.6564 0 0
lwrist 25.6046 0 0
lhand 38.3114 25.1843 0
lfingers 7.12502 0 0
lthumb 60.9718 37.8298 0
rclavicle 1.0568e-15 1.91482e-14 0
rhumerus 0.994101 -17.9353 -0.836128
rradius 29.919 0 0
rwrist -10.3514 0 0
rhand -28.3114 -40.6687 0
rfingers 7.12502 0 0
rthumb -1.68701 -790.585 0
1063
root 1.29086 15.2105 32.6989 5.27179 -3.47495 363.468
lfemur 6.92077 0.765322 4.53676
ltibia 4.09222 0 0
lfoot -32.1604 -11.0664 0
ltoes -33.6598 0 0
rfemur -30.3424 -14.0919 -6.82581
rtibia 49.0917 0 0
rfoot -20.8033 3.96456 0
rtoes -41.5484 0 0
lowerback -2.3155 -0.184755 -0.554851
upperback -0.664073 -0.194432 -6.1281
thorax 0.59195 -0.102541 -6.04834
lowerneck -7.48727 0.629074 5.82358
upperneck 2.1732 0.120172 3.90116
head 1.96705 0.224321 0.246753
lclavicle 1.05004e-15 1.98081e-14 0
lhumerus -58.4009 -46.1728 114.754
lradius 55.6566 0 0
lwrist 25.6036 0 0
lhand 38.2857 25.1925 0
lfingers 7.12502 0 0
lthumb 60.9504 37.8648 0
rclavicle 1.05004e-15 1.98081e-14 0
rhumerus 1.03158 -18.131 -0.782504
rradius 29.8218 0 0
rwrist -10.2947 0 0
rhand -28.4045 -40.6898 0
rfingers 7.12502 0 0
rthumb -1.77689 -790.608 0
1064
root 1.28992 15.2087 32.6982 5.26259 -3.48033 363.455
lfemur 6.94282 0.767081 4.55812
ltibia 4.07653 0 0
lfoot -32.1709 -11.0362 0
ltoes -33.6869 0 0
rfemur -30.3439 -14.1247 -6.80831
rtibia 49.1044 0 0
rfoot -20.8465 4.00461 0
rtoes -41.528 0 0
lowerback -2.30696 -0.178577 -0.555648
upperback -0.657666 -0.186148 -6.11902
thorax 0.594816 -0.098202 -6.03783
lowerneck -7.49161 0.629352 5.84375
upperneck 2.17363 0.118332 3.90212
head 1.96801 0.223687 0.24359
lclavicle 1.04328e-15 2.04681e-14 0
lhumerus -58.3966 -46.1934 114.78
lradius 55.6568 0 0
lwrist 25.6025 0 0
lhand 38.26 25.2006 0
lfingers 7.12502 0 0
lthumb 60.929 37.8998 0
rclavicle 1.04328e-15 2.04681e-14 0
rhumerus 1.06906 -18.3267 -0.72888
rradius 29.7247 0 0
rwrist -10.238 0 0
rhand -28.4976 -40.7109 0
rfingers 7.12502 0 0
rthumb -1.86676 -790.63 0
1065
root 1.28897 15.207 32.6976 5.25339 -3.48571 363.442
lfemur 6.96486 0.76884 4.57947
ltibia 4.06084 0 0
lfoot -32.1814 -11.0061 0
ltoes -33.714 0 0
rfemur -30.3453 -14.1575 -6.79081
rtibia 49.1171 0 0
rfoot -20.8897 4.04466 0
rtoes -41.5077 0 0
lowerback -2.29842 -0.1724 -0.556445
upperback -0.651259 -0.177864 -6.10993
thorax 0.597683 -0.0938633 -6.02733
lowerneck -7.49595 0.62963 5.86391
upperneck 2.17406 0.116493 3.90307
head 1.96897 0.223054 0.240427
lclavicle 1.03652e-15 2.1128e-14 0
lhumerus -58.3922 -46.2139 114.807
lradius 55.6571 0 0
lwrist 25.6015 0 0
lhand 38.2343 25.2088 0
lfingers 7.12502 0 0
lthumb 60.9076 37.9349 0
rclavicle 1.03652e-15 2.1128e-14 0
rhumerus 1.10654 -18.5224 -0.675257
rradius 29.6275 0 0
rwrist -10.1813 0 0
rhand -28.5907 -40.732 0
rfingers 7.12502 0 0
rthumb -1.95664 -790.652 0
